PathFileType	4	(X/Y/Z)	k10_0-1010.trc
DataRate	CameraRate	NumFrames	NumMarkers	Units	OrigDataRate	OrigDataStartFrame	OrigNumFrames
120	120	4	27	m	120	0	1010
Frame#	Time	RHip			RKnee			RAnkle			RBigToe			RSmallToe			RHeel			LHip			LKnee			LAnkle			LBigToe			LSmallToe			LHeel			Nose			REye			LEye			RShoulder			RElbow			RWrist			RThumb			RIndex			RPinky			LShoulder			LElbow			LWrist			LThumb			LIndex			LPinky			
		X1	Y1	Z1	X2	Y2	Z2	X3	Y3	Z3	X4	Y4	Z4	X5	Y5	Z5	X6	Y6	Z6	X7	Y7	Z7	X8	Y8	Z8	X9	Y9	Z9	X10	Y10	Z10	X11	Y11	Z11	X12	Y12	Z12	X13	Y13	Z13	X14	Y14	Z14	X15	Y15	Z15	X16	Y16	Z16	X17	Y17	Z17	X18	Y18	Z18	X19	Y19	Z19	X20	Y20	Z20	X21	Y21	Z21	X22	Y22	Z22	X23	Y23	Z23	X24	Y24	Z24	X25	Y25	Z25	X26	Y26	Z26	X27	Y27	Z27	
0	0.0	0.03812731788232653	0.19167677631587396	0.885266649797773	0.015318788538592315	0.20749443077357826	0.4943421782726851	-0.02336769183779928	0.2606833573815613	0.09487344931629944	-0.059842682183055954	0.11334335380553176	0.024976346952087454	-0.0770084695909699	0.11861124687778483	0.04592404709789949	-0.008012517139084964	0.2834077147147353	0.045097582121335904	0.2612434312899975	0.19276965450318434	0.8799782387043957	0.2683183169226829	0.2333755046185802	0.46930249094762455	0.2794756407003558	0.312880191467837	0.0939341605769664	0.32063012808676666	0.0875148905878446	0.01938292560843781	0.36646574812028526	0.14031028461406436	0.010111831927999984	0.287231541940917	0.3329893268003558	0.0452017155761329	0.1474676108558454	0.09300299600796003	1.6050453590832732	0.10564188135782177	0.09270707022734995	1.6337240739751948	0.17064689489666632	0.11353807645595682	1.6477073059375293	-0.01171984166071182	0.21318599603681096	1.4165411774311214	-0.2785920063323032	0.2106253578854281	1.4121111387495693	-0.5604896505970887	0.18319479292735735	1.4192541640446745	-0.6619977869793021	0.18900686176070255	1.3988102977858514	-0.6722401230381808	0.19642579018147707	1.4114229596695511	-0.6098063480810387	0.16798733611467473	1.392458132832994	0.34503265684252693	0.22780075929194807	1.42138613586375	0.6104850306609843	0.22654805911837925	1.3844691846333979	0.860745634937495	0.18341597504404392	1.3630240179240452	0.8890636286901916	0.18392799345486688	1.3705794424620161	0.942398272348199	0.18547591872551494	1.3774786194404418	0.954863501994747	0.20668480988871307	1.3338000237457934
1	0.0083333333333333	0.03710928071395203	0.1970619510043342	0.8880587799805724	0.012044903168184455	0.2106427472944892	0.4923850625220261	-0.02647383821203802	0.26193899494387335	0.09245890337831286	-0.05538210236248781	0.1032997205929729	0.023862855503689356	-0.07727197289918374	0.11530066702356459	0.04141916237572921	-0.014733559492649685	0.2880775974897494	0.04100961963041221	0.26100303511204637	0.1990791631003599	0.8840213793148298	0.2696328399932777	0.23035545452759867	0.47165073038919214	0.2848960133947136	0.30700781362773266	0.09077003095460115	0.3199537421841552	0.08693289100444851	0.018812843856844785	0.36239857106003104	0.1373977832536092	0.012286841014863206	0.28869437638646395	0.33012335067290766	0.040886338619928464	0.14581057296442107	0.08852884132795277	1.603419028669065	0.10849429400133226	0.09131563436777945	1.6321652222478458	0.1695358133028133	0.10895645441257693	1.6433058730894172	-0.014886217872233659	0.21705171945155693	1.417713794437842	-0.28032733647051356	0.20936280332140333	1.412181569136527	-0.5541705720017677	0.17721278795955253	1.4193564889965913	-0.6470439656008898	0.17142419535745132	1.4006271565715656	-0.6644340699835269	0.18002802119724406	1.414571140406248	-0.6145837813099808	0.1675214852045913	1.3978091360071725	0.34367485332570064	0.23200173408059144	1.4223409422961368	0.6078922692591365	0.22557484418573695	1.3868640339663436	0.8583964522781697	0.18400414833541354	1.3637543694335625	0.8949821872519902	0.17774293376338157	1.3685612623855057	0.9449402328172534	0.18127678966033542	1.3755341669360677	0.9527547668416253	0.20214408466614858	1.3376241079923448
2	0.0166666666666666	0.03615524859887058	0.20207621668946305	0.8906644376486375	0.008984719085728824	0.21357423459911473	0.4905607803125553	-0.02936993512323338	0.2630977366781192	0.09020836686559351	-0.051228087725125285	0.09392715979566608	0.02281984821696519	-0.07752552145008489	0.1122132591699469	0.03720849582900089	-0.02100179465224172	0.292433511302279	0.037202454157462886	0.2607676960808866	0.2049639103816357	0.8878018593433747	0.27086562224197586	0.22752889987046113	0.47384126376122343	0.28994071165122426	0.30152932797336063	0.0878091720470479	0.31930881611055784	0.08639998589616137	0.018279822721666283	0.35859381557252085	0.1346849303852206	0.01431357164091018	0.29005359730670505	0.32744617825048095	0.03685226599847888	0.14428099064523264	0.08434909130842287	1.6019035337063519	0.11116765546039391	0.0900086878835862	1.630716623132311	0.16851503925855482	0.10467561195311656	1.6391999739610943	-0.017856428763461784	0.2206742042680129	1.4188124769246104	-0.2819405151793335	0.20818451603552024	1.4122539027109595	-0.5482702376579871	0.1716132090175847	1.4194539799334431	-0.6330477231660215	0.15496376048417237	1.402324295587036	-0.657108965196105	0.16467734830411032	1.417518550036003	-0.6190069301711173	0.16705698175864667	1.4028032174669693	0.34242086326175103	0.2359294137752766	1.4232305925671502	0.605490189202107	0.2246321135271652	1.3891008033867651	0.8562160778050383	0.18458560118107833	1.3644369929093132	0.9005100162022633	0.17201966226461493	1.366679340021059	0.9473427419445174	0.17739155502977036	1.3737158714234996	0.9507869208248593	0.19791921007660176	1.3411861544997716
3	0.025	0.03532119877179273	0.20644724837477016	0.8929558769515545	0.006293339048737284	0.21613584012593637	0.48897540116761773	-0.03190189895345659	0.26409031790685744	0.08824376231213958	-0.04758971667738665	0.08572868319543224	0.021907666975752978	-0.07774938193356488	0.10951556345499286	0.03351231851928102	-0.02648052809390972	0.2962464396524516	0.033880306011540316	0.2605439887518682	0.21011351091146913	0.8911316242275269	0.2719484380000677	0.22504127899781295	0.47576245831004704	0.29434509880819737	0.2967247726366862	0.08520535324242155	0.3187311429029727	0.08593898004141055	0.017815164539882997	0.3552527463050613	0.1323037115986507	0.016090345516895727	0.29124233599327387	0.32508187265260263	0.03331055392422175	0.1429708923365456	0.0806827925803868	1.6005736448033574	0.11352668041833293	0.08885609038919724	1.629454274692044	0.16764934507021997	0.10092688554626751	1.6356012277214786	-0.02048723677380939	0.22387984015359969	1.419785848016939	-0.28334634007990417	0.20715625450411698	1.4123288010221866	-0.5430795920539389	0.16665907478460887	1.41954272174638	-0.6206984306587711	0.14041764897141826	1.40382118992607	-0.650606031774305	0.15110621684079817	1.4201265573485435	-0.6228134111360402	0.16657072339966597	1.4071859921600158	0.3413463782414007	0.2393769061111957	1.424011425135998	0.6034002393849532	0.22375999175582548	1.3910671045236207	0.8543462971943098	0.1851250400048155	1.365033695125166	0.9053814493684116	0.16705183562491543	1.36502960025538	0.9495010637531385	0.17401056873128168	1.372113323557416	0.9490756141873394	0.19422779634118822	1.344295028160104
